<svg xmlns="http://www.w3.org/2000/svg" viewBox="0 0 1200 800" role="img" aria-label="Abstract landscape with mountains, river, and sky">
  <defs>
    <linearGradient id="sky" x1="0" y1="0" x2="0" y2="1">
      <stop offset="0%" stop-color="#8EC5FC"/>
      <stop offset="100%" stop-color="#E0C3FC"/>
    </linearGradient>
    <linearGradient id="river" x1="0" y1="0" x2="1" y2="0">
      <stop offset="0%" stop-color="#76E4F7"/>
      <stop offset="100%" stop-color="#3AA0F3"/>
    </linearGradient>
    <linearGradient id="mountain1" x1="0" y1="0" x2="0" y2="1">
      <stop offset="0%" stop-color="#6B8E23"/>
      <stop offset="100%" stop-color="#3C5A14"/>
    </linearGradient>
    <linearGradient id="mountain2" x1="0" y1="0" x2="0" y2="1">
      <stop offset="0%" stop-color="#A3B18A"/>
      <stop offset="100%" stop-color="#588157"/>
    </linearGradient>
  </defs>
  <rect width="1200" height="800" fill="url(#sky)"/>
  <path d="M0 600 C 200 500, 400 650, 600 600 S 1000 550, 1200 620 L 1200 800 L 0 800 Z" fill="url(#mountain2)"/>
  <path d="M0 650 C 300 550, 500 720, 800 670 S 1000 700, 1200 680 L 1200 800 L 0 800 Z" fill="url(#mountain1)"/>
  <path d="M0 700 C 200 720, 400 680, 600 720 S 1000 760, 1200 740 L 1200 800 L 0 800 Z" fill="url(#river)"/>
  <circle cx="980" cy="140" r="60" fill="#FFD27D"/>
</svg>